<?xml version="1.0" encoding="UTF-8"?>
<!DOCTYPE svg PUBLIC "-//W3C//DTD SVG 1.1//EN" "http://www.w3.org/Graphics/SVG/1.1/DTD/svg11.dtd">
<!-- Creator: CorelDRAW -->
<svg xmlns="http://www.w3.org/2000/svg" xml:space="preserve" width="2048px" height="2048px" style="shape-rendering:geometricPrecision; text-rendering:geometricPrecision; image-rendering:optimizeQuality; fill-rule:evenodd; clip-rule:evenodd"
viewBox="0 0 2048 2048"
 xmlns:xlink="http://www.w3.org/1999/xlink">
 <defs>
  <style type="text/css">
   <![CDATA[
    .fil2 {fill:none}
    .fil1 {fill:#4FC3F7}
    .fil0 {fill:#81D4FA}
    .fil5 {fill:#B71C1C}
    .fil4 {fill:#C62828}
    .fil6 {fill:#D32F2F}
    .fil7 {fill:#FFC107}
    .fil3 {fill:#981B1C;fill-rule:nonzero}
   ]]>
  </style>
   <clipPath id="id0">
    <path d="M1024 -0.0011811c565.539,0 1024,458.462 1024,1024 0,565.539 -458.462,1024 -1024,1024 -565.539,0 -1024,-458.462 -1024,-1024 0,-565.539 458.462,-1024 1024,-1024z"/>
   </clipPath>
 </defs>
 <g id="Layer_x0020_1">
  <metadata id="CorelCorpID_0Corel-Layer"/>
  <path class="fil0" d="M1024 -0.0011811c565.539,0 1024,458.462 1024,1024 0,565.539 -458.462,1024 -1024,1024 -565.539,0 -1024,-458.462 -1024,-1024 0,-565.539 458.462,-1024 1024,-1024z"/>
  <g style="clip-path:url(#id0)">
   <g id="_289347416">
    <g>
     <polygon id="_2909600641" class="fil1" points="1069.77,488.211 2205.65,1624.09 2207.64,1626.36 2209.6,1628.68 2211.54,1631.06 2213.45,1633.49 2215.35,1635.96 2217.22,1638.48 2219.08,1641.03 2220.93,1643.61 2222.76,1646.22 2224.58,1648.84 2226.4,1651.48 2228.21,1654.13 2230.01,1656.78 1094.13,520.896 1092.32,518.246 1090.52,515.599 1088.7,512.961 1086.88,510.337 1085.05,507.731 1083.2,505.15 1081.34,502.598 1079.47,500.081 1077.57,497.606 1075.66,495.175 1073.72,492.796 1071.76,490.473 "/>
     <polygon id="_290960184" class="fil1" points="1479.25,919.248 2615.13,2055.13 2615.05,2058.04 2614.8,2060.88 2614.4,2063.65 2613.85,2066.37 2613.14,2069.02 2612.3,2071.61 2611.32,2074.14 2610.21,2076.62 2608.98,2079.05 2607.63,2081.43 2606.16,2083.76 2604.58,2086.04 2602.9,2088.28 2601.12,2090.47 2599.24,2092.63 2597.28,2094.75 2595.24,2096.83 2593.11,2098.88 2590.92,2100.9 2588.66,2102.89 2586.33,2104.85 2583.95,2106.79 2581.52,2108.7 2579.05,2110.6 2576.53,2112.47 2573.98,2114.33 2571.4,2116.18 2568.79,2118.01 2566.17,2119.83 2563.53,2121.65 2560.88,2123.45 2558.23,2125.26 1422.35,989.377 1425,987.572 1427.65,985.763 1430.29,983.949 1432.91,982.126 1435.52,980.293 1438.1,978.45 1440.65,976.591 1443.17,974.715 1445.64,972.822 1448.07,970.907 1450.45,968.97 1452.77,967.008 1455.04,965.018 1457.23,963.001 1459.35,960.95 1461.4,958.867 1463.36,956.749 1465.24,954.592 1467.02,952.396 1468.7,950.157 1470.28,947.876 1471.75,945.546 1473.1,943.17 1474.33,940.742 1475.44,938.263 1476.42,935.727 1477.26,933.135 1477.96,930.485 1478.52,927.772 1478.92,924.998 1479.17,922.156 "/>
     <polygon id="_290962104" class="fil1" points="1422.35,989.377 2558.23,2125.26 2555.1,2127.39 2552,2129.52 2548.94,2131.63 2545.95,2133.72 2543.05,2135.78 2540.25,2137.81 2537.59,2139.81 2535.08,2141.76 2532.74,2143.67 2530.6,2145.52 2528.67,2147.31 2526.97,2149.04 2525.53,2150.69 2524.37,2152.27 2523.51,2153.77 2522.97,2155.18 1387.09,1019.3 1387.63,1017.89 1388.49,1016.39 1389.65,1014.81 1391.09,1013.16 1392.79,1011.43 1394.72,1009.64 1396.86,1007.79 1399.2,1005.88 1401.71,1003.93 1404.37,1001.93 1407.17,999.897 1410.07,997.834 1413.06,995.743 1416.12,993.634 1419.22,991.51 "/>
     <polygon id="_290962536" class="fil1" points="1387.09,1019.3 2522.97,2155.18 2522.81,2155.91 2522.71,2156.7 2522.67,2157.56 2522.7,2158.47 2522.78,2159.43 2522.91,2160.45 2523.09,2161.53 2523.33,2162.65 2523.61,2163.82 2523.94,2165.03 2524.32,2166.29 2524.73,2167.6 2525.19,2168.94 2525.69,2170.32 2526.22,2171.73 2526.79,2173.18 2527.38,2174.66 2528.01,2176.17 2528.67,2177.71 2529.35,2179.27 2530.06,2180.86 2530.79,2182.47 2531.54,2184.1 2532.3,2185.74 2533.09,2187.41 2533.88,2189.08 2534.69,2190.77 2535.51,2192.47 2536.34,2194.17 2537.17,2195.88 2538,2197.59 2538.84,2199.31 1402.96,1063.43 1402.12,1061.71 1401.29,1060 1400.45,1058.29 1399.63,1056.58 1398.81,1054.89 1398,1053.2 1397.2,1051.52 1396.42,1049.86 1395.65,1048.22 1394.91,1046.59 1394.18,1044.98 1393.47,1043.39 1392.79,1041.83 1392.13,1040.29 1391.5,1038.78 1390.9,1037.3 1390.34,1035.85 1389.81,1034.43 1389.31,1033.06 1388.85,1031.71 1388.44,1030.41 1388.06,1029.15 1387.73,1027.94 1387.45,1026.77 1387.21,1025.64 1387.03,1024.57 1386.89,1023.55 1386.82,1022.58 1386.79,1021.67 1386.83,1020.82 1386.93,1020.03 "/>
     <polygon id="_290962488" class="fil1" points="1402.96,1063.43 2538.84,2199.31 2540.21,2202.11 2541.58,2204.92 2542.93,2207.72 2544.27,2210.52 2545.58,2213.32 2546.87,2216.11 2548.12,2218.89 2549.34,2221.67 2550.51,2224.45 2551.63,2227.21 2552.7,2229.97 2553.7,2232.72 2554.65,2235.47 2555.52,2238.2 2556.31,2240.92 2557.02,2243.63 2557.65,2246.33 2558.18,2249.01 2558.61,2251.68 2558.95,2254.34 2559.17,2256.99 2559.27,2259.62 2559.26,2262.23 2559.12,2264.82 2558.85,2267.4 2558.45,2269.96 2557.9,2272.51 2557.21,2275.03 2556.36,2277.53 2555.36,2280.01 2554.19,2282.47 2552.86,2284.91 1416.98,1149.03 1418.31,1146.59 1419.48,1144.13 1420.48,1141.65 1421.33,1139.15 1422.02,1136.62 1422.57,1134.08 1422.97,1131.52 1423.24,1128.94 1423.38,1126.35 1423.39,1123.73 1423.28,1121.1 1423.06,1118.46 1422.73,1115.8 1422.3,1113.13 1421.77,1110.44 1421.14,1107.75 1420.43,1105.04 1419.64,1102.31 1418.76,1099.58 1417.82,1096.84 1416.82,1094.09 1415.75,1091.33 1414.63,1088.57 1413.46,1085.79 1412.24,1083.01 1410.99,1080.22 1409.7,1077.43 1408.39,1074.64 1407.05,1071.84 1405.7,1069.04 1404.33,1066.23 "/>
     <polygon id="_290962560" class="fil1" points="1416.98,1149.03 2552.86,2284.91 2551.38,2287.28 2549.8,2289.5 2548.12,2291.6 2546.34,2293.56 2544.47,2295.4 2542.51,2297.12 2540.46,2298.72 2538.33,2300.22 2536.12,2301.61 2533.83,2302.89 2531.47,2304.08 2529.04,2305.17 2526.55,2306.18 2523.99,2307.1 2521.37,2307.94 2518.7,2308.71 2515.97,2309.4 2513.19,2310.03 2510.37,2310.6 2507.5,2311.11 2504.59,2311.56 2501.65,2311.97 2498.67,2312.33 2495.67,2312.65 2492.64,2312.94 2489.58,2313.19 2486.51,2313.42 2483.42,2313.63 2480.31,2313.82 2477.2,2314 2474.08,2314.16 2470.96,2314.32 1335.08,1178.44 1338.2,1178.28 1341.32,1178.11 1344.43,1177.94 1347.53,1177.75 1350.63,1177.54 1353.7,1177.31 1356.76,1177.06 1359.79,1176.77 1362.79,1176.45 1365.77,1176.09 1368.71,1175.68 1371.62,1175.22 1374.49,1174.71 1377.31,1174.15 1380.09,1173.52 1382.82,1172.82 1385.49,1172.06 1388.11,1171.22 1390.67,1170.3 1393.16,1169.29 1395.59,1168.2 1397.95,1167.01 1400.24,1165.72 1402.45,1164.34 1404.58,1162.84 1406.63,1161.24 1408.59,1159.52 1410.46,1157.68 1412.23,1155.71 1413.92,1153.62 1415.5,1151.39 "/>
     <polygon id="_290962608" class="fil1" points="1335.08,1178.44 2470.96,2314.32 2470.05,2314.37 2469.14,2314.42 2468.23,2314.47 2467.33,2314.51 2466.42,2314.56 2465.52,2314.61 2464.62,2314.66 2463.72,2314.71 2462.82,2314.76 2461.92,2314.81 2461.03,2314.86 2460.15,2314.91 2459.26,2314.96 2458.38,2315.02 2457.51,2315.08 2456.64,2315.13 1320.76,1179.25 1321.63,1179.19 1322.5,1179.14 1323.38,1179.08 1324.27,1179.03 1325.15,1178.98 1326.04,1178.92 1326.94,1178.87 1327.84,1178.82 1328.73,1178.77 1329.64,1178.73 1330.54,1178.68 1331.44,1178.63 1332.35,1178.58 1333.26,1178.54 1334.17,1178.49 "/>
     <polygon id="_290962632" class="fil1" points="1320.76,1179.25 2456.64,2315.13 2597.17,2561.05 1461.29,1425.17 "/>
     <polygon id="_290961888" class="fil1" points="1461.36,1425.12 2597.24,2561.01 2598.32,2563.07 2599.17,2565.19 2599.79,2567.36 2600.19,2569.55 2600.37,2571.75 2600.33,2573.95 2600.09,2576.12 2599.64,2578.26 2598.99,2580.35 2598.15,2582.36 2597.11,2584.3 2595.88,2586.13 2594.46,2587.85 2592.86,2589.44 2591.09,2590.88 2589.14,2592.16 1453.26,1456.28 1455.21,1455 1456.98,1453.56 1458.58,1451.97 1459.99,1450.25 1461.22,1448.42 1462.27,1446.48 1463.11,1444.46 1463.76,1442.38 1464.21,1440.24 1464.45,1438.07 1464.49,1435.87 1464.3,1433.67 1463.91,1431.48 1463.28,1429.31 1462.44,1427.19 "/>
     <polygon id="_290962296" class="fil1" points="1453.26,1456.28 2589.14,2592.16 2588.3,2592.63 2587.45,2593.06 2586.59,2593.45 2585.72,2593.81 2584.85,2594.12 2583.96,2594.4 2583.07,2594.64 2582.18,2594.84 2581.28,2595.01 2580.38,2595.13 2579.47,2595.23 2578.57,2595.28 2577.67,2595.3 2576.77,2595.28 2575.87,2595.23 2574.98,2595.14 1439.1,1459.26 1439.99,1459.35 1440.89,1459.4 1441.79,1459.42 1442.69,1459.4 1443.59,1459.34 1444.5,1459.25 1445.4,1459.12 1446.3,1458.96 1447.19,1458.76 1448.08,1458.52 1448.96,1458.24 1449.84,1457.92 1450.71,1457.57 1451.57,1457.18 1452.42,1456.75 "/>
     <polygon id="_290963376" class="fil1" points="1439.1,1459.26 2574.98,2595.14 2442.7,2584.11 1306.82,1448.23 "/>
     <polygon id="_290962968" class="fil1" points="1077.69,1340.74 2213.57,2476.62 2212.2,2478.38 2210.81,2480.11 2209.41,2481.82 2208,2483.49 2206.57,2485.14 2205.13,2486.75 2203.67,2488.32 2202.2,2489.86 2200.71,2491.36 2199.2,2492.82 2197.67,2494.23 2196.12,2495.6 2194.56,2496.92 2192.97,2498.19 2191.36,2499.42 2189.73,2500.58 2188.07,2501.69 2186.39,2502.75 2184.69,2503.74 2182.96,2504.68 2181.2,2505.55 2179.41,2506.35 2177.6,2507.09 2175.76,2507.76 2173.89,2508.36 2171.98,2508.88 2170.05,2509.33 2168.08,2509.7 2166.08,2510 2164.05,2510.21 2161.98,2510.34 2159.88,2510.38 1024,1374.5 1026.1,1374.45 1028.17,1374.33 1030.2,1374.11 1032.2,1373.82 1034.17,1373.45 1036.1,1373 1038.01,1372.48 1039.88,1371.88 1041.72,1371.21 1043.53,1370.47 1045.32,1369.67 1047.08,1368.79 1048.81,1367.86 1050.51,1366.87 1052.19,1365.81 1053.85,1364.7 1055.48,1363.53 1057.09,1362.31 1058.68,1361.04 1060.24,1359.72 1061.79,1358.35 1063.32,1356.94 1064.82,1355.48 1066.32,1353.98 1067.79,1352.44 1069.25,1350.87 1070.69,1349.25 1072.11,1347.61 1073.53,1345.93 1074.93,1344.23 1076.32,1342.49 "/>
     <polygon id="_290963400" class="fil1" points="1306.82,1448.23 2442.7,2584.11 2386.14,2706.63 1250.25,1570.75 "/>
     <polygon id="_290962944" class="fil1" points="741.184,1448.23 1877.06,2584.11 1744.79,2595.14 608.905,1459.26 "/>
     <polygon id="_290963088" class="fil1" points="731.092,1179.53 1866.97,2315.41 1865.89,2315.33 1864.8,2315.25 1863.69,2315.17 1862.58,2315.1 1861.46,2315.03 1860.33,2314.96 1859.2,2314.89 1858.06,2314.82 1856.92,2314.75 1855.77,2314.69 1854.61,2314.63 1853.46,2314.57 1852.3,2314.51 1851.13,2314.44 1849.97,2314.38 1848.81,2314.32 712.926,1178.44 714.09,1178.5 715.253,1178.56 716.415,1178.62 717.575,1178.68 718.732,1178.75 719.886,1178.81 721.035,1178.87 722.181,1178.94 723.321,1179 724.453,1179.07 725.581,1179.14 726.7,1179.21 727.812,1179.29 728.914,1179.37 730.008,1179.45 "/>
     <polygon id="_290962848" class="fil1" points="712.926,1178.44 1848.81,2314.32 1845.68,2314.16 1842.56,2314 1839.45,2313.82 1836.35,2313.63 1833.26,2313.42 1830.18,2313.19 1827.13,2312.94 1824.09,2312.65 1821.09,2312.33 1818.11,2311.97 1815.17,2311.56 1812.26,2311.11 1809.4,2310.6 1806.57,2310.03 1803.8,2309.4 1801.07,2308.71 1798.39,2307.94 1795.77,2307.1 1793.21,2306.18 1790.72,2305.17 1788.29,2304.08 1785.93,2302.89 1783.64,2301.61 1781.43,2300.22 1779.3,2298.73 1777.26,2297.12 1775.3,2295.4 639.414,1159.52 641.375,1161.24 643.423,1162.84 645.552,1164.34 647.762,1165.72 650.049,1167.01 652.408,1168.2 654.838,1169.29 657.334,1170.3 659.892,1171.22 662.51,1172.06 665.186,1172.83 667.914,1173.52 670.691,1174.15 673.515,1174.72 676.382,1175.22 679.289,1175.68 682.232,1176.09 685.208,1176.45 688.214,1176.77 691.245,1177.06 694.301,1177.31 697.375,1177.54 700.466,1177.75 703.57,1177.94 706.684,1178.11 709.803,1178.28 "/>
     <polygon id="_290963328" class="fil1" points="625.647,989.375 1761.53,2125.26 1758.88,2123.45 1756.23,2121.64 1753.59,2119.83 1750.97,2118.01 1748.36,2116.17 1745.78,2114.33 1743.23,2112.47 1740.71,2110.6 1738.24,2108.7 1735.81,2106.79 1733.43,2104.85 1731.11,2102.89 1728.84,2100.9 1726.65,2098.88 590.768,963 592.962,965.017 595.224,967.007 597.547,968.969 599.927,970.906 602.357,972.82 604.834,974.714 607.349,976.589 609.9,978.447 612.482,980.292 615.088,982.124 617.712,983.946 620.35,985.761 622.997,987.57 "/>
     <polygon id="_290963304" class="fil1" points="838.927,1571.01 1974.81,2706.9 1973.91,2708.6 1972.86,2710.23 1971.68,2711.77 1970.36,2713.21 1968.91,2714.54 1967.33,2715.75 1965.62,2716.84 1963.8,2717.78 827.914,1581.9 829.742,1580.96 831.447,1579.87 833.027,1578.66 834.48,1577.33 835.799,1575.88 836.983,1574.35 838.027,1572.72 "/>
     <polygon id="_290962728" class="fil1" points="827.914,1581.9 1963.8,2717.78 1961.63,2718.65 1959.44,2719.28 1957.22,2719.69 1955,2719.87 1952.79,2719.83 1950.61,2719.59 1948.47,2719.13 1946.39,2718.47 1944.38,2717.62 1942.45,2716.58 1940.63,2715.36 1938.93,2713.95 803.045,1578.07 804.749,1579.47 806.571,1580.7 808.495,1581.74 810.506,1582.59 812.59,1583.25 814.73,1583.7 816.912,1583.95 819.121,1583.99 821.34,1583.81 823.556,1583.4 825.752,1582.77 "/>
     <polygon id="_290963256" class="fil1" points="655.215,1011.43 1791.1,2147.31 1789.16,2145.52 1787.02,2143.67 1784.68,2141.76 1782.17,2139.81 1779.51,2137.81 1776.71,2135.78 1773.81,2133.71 1770.82,2131.62 1767.76,2129.51 1764.66,2127.39 1761.53,2125.26 625.647,989.375 628.777,991.508 631.882,993.631 634.94,995.741 637.932,997.831 640.834,999.895 643.627,1001.93 646.289,1003.92 648.8,1005.88 651.139,1007.78 653.284,1009.64 "/>
     <polygon id="_290962920" class="fil1" points="608.905,1459.26 1744.79,2595.14 1743.89,2595.23 1742.99,2595.28 1742.09,2595.3 1741.19,2595.28 1740.29,2595.23 1739.39,2595.13 1738.49,2595.01 1737.59,2594.84 1736.69,2594.64 1735.8,2594.4 1734.92,2594.12 1734.04,2593.81 1733.17,2593.45 1732.31,2593.06 1731.46,2592.63 1730.62,2592.16 594.74,1456.28 595.58,1456.75 596.43,1457.18 597.29,1457.57 598.159,1457.92 599.037,1458.24 599.921,1458.52 600.812,1458.76 601.706,1458.96 602.605,1459.12 603.506,1459.25 604.408,1459.34 605.311,1459.4 606.213,1459.42 607.113,1459.4 608.011,1459.35 "/>
     <polygon id="_290963856" class="fil1" points="594.74,1456.28 1730.62,2592.16 1728.67,2590.88 1726.9,2589.44 591.018,1453.56 592.792,1455 "/>
     <polygon id="_290963784" class="fil1" points="972.583,1343.62 2108.46,2479.51 1974.81,2706.9 838.927,1571.01 "/>
     <polygon id="_290963664" class="fil1" points="1024,1374.5 2159.88,2510.38 2157.89,2510.34 2155.92,2510.22 2153.99,2510.03 2152.09,2509.77 2150.22,2509.43 2148.37,2509.03 2146.56,2508.56 2144.77,2508.02 2143.01,2507.41 2141.28,2506.74 2139.57,2506.01 2137.89,2505.22 2136.23,2504.38 2134.6,2503.47 2132.99,2502.51 2131.4,2501.5 2129.83,2500.44 2128.29,2499.33 2126.76,2498.17 2125.25,2496.96 2123.77,2495.71 2122.3,2494.42 2120.85,2493.08 984.966,1357.2 986.417,1358.54 987.887,1359.83 989.374,1361.08 990.88,1362.29 992.405,1363.45 993.952,1364.56 995.518,1365.62 997.106,1366.63 998.717,1367.59 1000.35,1368.49 1002.01,1369.34 1003.69,1370.13 1005.4,1370.86 1007.13,1371.53 1008.89,1372.13 1010.68,1372.67 1012.49,1373.15 1014.34,1373.55 1016.21,1373.89 1018.11,1374.15 1020.04,1374.34 1022.01,1374.46 "/>
     <polygon id="_290963976" class="fil1" points="1250.29,1570.77 2386.17,2706.66 2385.09,2708.72 2383.83,2710.63 2382.41,2712.37 2380.84,2713.95 2379.13,2715.36 2377.31,2716.58 2375.39,2717.62 2373.38,2718.47 2371.29,2719.13 2369.15,2719.59 2366.97,2719.83 2364.76,2719.87 2362.54,2719.69 2360.33,2719.28 2358.13,2718.65 2355.97,2717.78 1220.09,1581.9 1222.25,1582.77 1224.45,1583.4 1226.66,1583.81 1228.88,1583.99 1231.09,1583.95 1233.27,1583.7 1235.41,1583.25 1237.49,1582.59 1239.51,1581.74 1241.43,1580.7 1243.25,1579.47 1244.96,1578.07 1246.53,1576.49 1247.95,1574.74 1249.21,1572.84 "/>
     <polygon id="_290963472" class="fil1" points="1220.09,1581.9 2355.97,2717.78 2354.14,2716.84 2352.44,2715.75 2350.85,2714.54 2349.4,2713.21 1213.52,1577.33 1214.97,1578.66 1216.55,1579.87 1218.26,1580.96 "/>
     <polygon id="_290963496" class="fil1" points="1094.13,520.896 2230.01,1656.78 2232.14,1659.91 2234.27,1663.01 2236.38,1666.07 2238.47,1669.06 2240.53,1671.97 2242.56,1674.76 2244.56,1677.42 2246.51,1679.93 2248.42,1682.27 2250.27,1684.42 1114.39,548.533 1112.54,546.388 1110.63,544.049 1108.68,541.538 1106.68,538.876 1104.65,536.083 1102.59,533.181 1100.5,530.189 1098.39,527.131 1096.26,524.026 "/>
     <polygon id="_290963592" class="fil1" points="1402.96,775.069 2538.84,1910.95 2538,1912.67 2537.17,1914.38 2536.33,1916.09 2535.51,1917.79 2534.69,1919.49 2533.88,1921.18 2533.09,1922.85 2532.3,1924.51 2531.54,1926.16 2530.79,1927.79 2530.06,1929.4 2529.35,1930.99 2528.67,1932.55 2528.01,1934.09 2527.38,1935.6 2526.79,1937.08 2526.22,1938.53 2525.69,1939.94 2525.19,1941.32 2524.73,1942.66 2524.32,1943.97 2523.94,1945.23 2523.61,1946.44 2523.33,1947.61 2523.09,1948.73 2522.91,1949.81 2522.78,1950.83 2522.7,1951.79 2522.67,1952.7 2522.71,1953.56 2522.81,1954.35 2522.97,1955.08 1387.09,819.198 1386.93,818.467 1386.83,817.674 1386.79,816.821 1386.82,815.912 1386.89,814.945 1387.03,813.924 1387.21,812.852 1387.45,811.73 1387.73,810.559 1388.06,809.344 1388.44,808.084 1388.85,806.782 1389.31,805.44 1389.81,804.061 1390.34,802.646 1390.9,801.197 1391.5,799.717 1392.13,798.206 1392.79,796.668 1393.47,795.105 1394.18,793.517 1394.91,791.907 1395.65,790.279 1396.42,788.632 1397.2,786.97 1398,785.295 1398.81,783.608 1399.63,781.912 1400.45,780.207 1401.29,778.497 1402.12,776.784 "/>
     <polygon id="_290963568" class="fil1" points="1265.99,536.622 2401.87,1672.5 2403.48,1674.55 2404.97,1676.68 2406.36,1678.89 2407.64,1681.18 2408.83,1683.54 2409.92,1685.97 2410.93,1688.46 2411.85,1691.02 2412.69,1693.64 2413.46,1696.31 2414.15,1699.04 2414.78,1701.82 2415.35,1704.65 2415.86,1707.51 2416.31,1710.42 2416.72,1713.36 2417.08,1716.34 2417.4,1719.34 2417.69,1722.37 2417.95,1725.43 2418.17,1728.5 2418.38,1731.6 2418.57,1734.7 2418.75,1737.81 2418.91,1740.93 2419.07,1744.05 1283.19,608.173 1283.03,605.05 1282.86,601.93 1282.69,598.817 1282.5,595.713 1282.29,592.622 1282.06,589.548 1281.81,586.492 1281.52,583.46 1281.2,580.454 1280.84,577.479 1280.43,574.536 1279.98,571.629 1279.47,568.763 1278.9,565.939 1278.27,563.161 1277.58,560.432 1276.81,557.758 1275.97,555.14 1275.05,552.58 1274.04,550.085 1272.95,547.655 1271.76,545.296 1270.47,543.01 1269.09,540.8 1267.59,538.669 "/>
     <polygon id="_290964096" class="fil1" points="1283.19,608.173 2419.07,1744.05 2419.17,1745.92 2419.27,1747.78 2419.37,1749.63 2419.47,1751.48 2419.57,1753.31 2419.68,1755.13 2419.79,1756.94 2419.91,1758.72 2420.03,1760.49 2420.16,1762.22 2420.3,1763.94 2420.44,1765.62 2420.6,1767.27 2420.76,1768.88 2420.93,1770.46 2421.12,1772 2421.31,1773.49 2421.52,1774.93 2421.75,1776.33 2421.98,1777.67 2422.23,1778.97 2422.5,1780.2 2422.78,1781.38 2423.09,1782.49 2423.4,1783.54 2423.74,1784.52 2424.09,1785.43 2424.47,1786.26 2424.87,1787.02 2425.28,1787.71 2425.72,1788.31 1289.84,652.424 1289.4,651.824 1288.99,651.141 1288.59,650.38 1288.21,649.544 1287.86,648.635 1287.52,647.654 1287.2,646.607 1286.9,645.494 1286.62,644.319 1286.35,643.085 1286.1,641.793 1285.87,640.447 1285.64,639.05 1285.43,637.604 1285.24,636.113 1285.05,634.577 1284.88,633 1284.71,631.386 1284.56,629.737 1284.42,628.055 1284.28,626.343 1284.15,624.604 1284.03,622.839 1283.91,621.055 1283.8,619.25 1283.69,617.429 1283.59,615.595 1283.48,613.749 1283.39,611.894 1283.29,610.035 "/>
     <polygon id="_290964000" class="fil1" points="1412.23,682.782 2548.12,1818.66 2549.8,1820.76 2551.38,1822.98 2552.86,1825.35 1416.98,689.464 1415.5,687.101 1413.92,684.875 "/>
     <polygon id="_290964240" class="fil1" points="1416.98,689.464 2552.86,1825.35 2554.19,1827.79 2555.36,1830.25 2556.36,1832.73 2557.21,1835.23 2557.9,1837.75 2558.45,1840.29 2558.85,1842.86 2559.12,1845.43 2559.26,1848.03 2559.27,1850.64 2559.17,1853.27 2558.95,1855.92 2558.61,1858.57 2558.18,1861.25 2557.65,1863.93 2557.02,1866.63 2556.31,1869.34 2555.52,1872.06 2554.65,1874.79 2553.7,1877.54 2552.7,1880.29 2551.63,1883.05 2550.51,1885.81 2549.34,1888.59 2548.12,1891.37 2546.87,1894.15 2545.58,1896.94 2544.27,1899.74 2542.93,1902.54 2541.58,1905.34 2540.21,1908.15 2538.84,1910.95 1402.96,775.069 1404.33,772.263 1405.69,769.459 1407.05,766.656 1408.38,763.857 1409.7,761.062 1410.99,758.271 1412.24,755.484 1413.45,752.704 1414.63,749.93 1415.75,747.164 1416.82,744.405 1417.82,741.654 1418.76,738.911 1419.64,736.18 1420.43,733.459 1421.14,730.749 1421.77,728.051 1422.3,725.365 1422.73,722.692 1423.06,720.034 1423.28,717.39 1423.39,714.761 1423.38,712.149 1423.24,709.553 1422.97,706.973 1422.57,704.412 1422.02,701.871 1421.33,699.348 1420.48,696.845 1419.48,694.364 1418.31,691.903 "/>
     <polygon id="_290964792" class="fil1" points="1387.09,819.198 2522.97,1955.08 2523.51,1956.49 2524.37,1957.99 2525.53,1959.57 2526.97,1961.22 1391.09,825.341 1389.65,823.685 1388.49,822.106 1387.63,820.608 "/>
     <polygon id="_290964288" class="fil1" points="1463.36,881.748 2599.24,2017.63 2601.12,2019.79 2602.9,2021.98 2604.58,2024.22 2606.16,2026.5 2607.63,2028.83 2608.98,2031.21 2610.21,2033.64 2611.32,2036.12 2612.3,2038.65 2613.14,2041.24 2613.85,2043.89 2614.4,2046.61 2614.8,2049.38 2615.05,2052.22 2615.13,2055.13 1479.25,919.248 1479.17,916.34 1478.92,913.498 1478.52,910.724 1477.96,908.011 1477.26,905.361 1476.42,902.769 1475.44,900.235 1474.33,897.754 1473.1,895.326 1471.75,892.95 1470.28,890.62 1468.7,888.338 1467.02,886.1 1465.24,883.905 "/>
    </g>
    <path id="_289347584" class="fil1" d="M1422.35 849.12c28.2638,19.2437 56.8961,38.7378 56.8961,70.128 0,31.3902 -28.6335,50.8855 -56.8973,70.1292 -16.7244,11.387 -33.2622,22.6477 -35.263,29.9209 -2.0504,7.45394 6.93308,25.8378 15.8717,44.1272 14.6315,29.9386 29.1815,59.7154 14.015,85.6052 -15.2055,25.9606 -48.5882,27.6886 -81.9001,29.4107 -4.84607,0.250394 -9.68977,0.500788 -14.3173,0.809056l140.528 245.916 0.0744095 -0.0437008c6.36615,10.8402 2.74016,24.7902 -8.09883,31.1563 -4.44449,2.61024 -9.41103,3.53977 -14.165,2.98229l-132.279 -11.0315 -56.563 122.517 0.0389764 0.0259843c-5.2689,11.4142 -18.7937,16.3949 -30.2079,11.126 -5.02796,-2.32087 -8.80631,-6.24449 -11.0126,-10.885l-131.38 -230.279c-14.6244,18.8894 -31.0689,33.7618 -53.693,33.7618 -21.4571,0 -37.3559,-13.3795 -51.417,-30.874l-133.656 227.391c-2.20512,4.64055 -5.98347,8.56418 -11.0126,10.885 -11.413,5.2689 -24.939,0.288189 -30.2067,-11.126l0.0377953 -0.0259843 -56.5619 -122.517 -132.279 11.0315c-4.75394,0.557481 -9.72048,-0.372048 -14.165,-2.98229 -10.8402,-6.36615 -14.4662,-20.3162 -8.09883,-31.1563l0.0744095 0.0437008 144.377 -245.64c-5.75197,-0.444095 -11.9575,-0.764174 -18.1665,-1.08543 -33.3118,-1.72205 -66.6945,-3.44882 -81.9012,-29.4095 -15.1665,-25.8898 -0.615355,-55.6666 14.0162,-85.6052 8.93741,-18.2906 17.9209,-36.6733 15.8705,-44.1284 -2.00079,-7.2756 -18.5398,-18.5362 -35.2642,-29.9233 -28.2638,-19.2414 -56.8961,-38.739 -56.8961,-70.1268 0,-31.3902 28.6335,-50.8855 56.8973,-70.1292 16.7244,-11.387 33.2622,-22.6477 35.263,-29.9209 2.0504,-7.45394 -6.93308,-25.8378 -15.8717,-44.1272 -14.6315,-29.9386 -29.1815,-59.7154 -14.015,-85.6052 15.2055,-25.9606 48.5882,-27.6886 81.9001,-29.4107 19.8721,-1.02638 39.7111,-2.05276 44.7685,-7.11142 5.06103,-5.05985 6.08623,-24.8965 7.11378,-44.7697 1.72205,-33.3118 3.44882,-66.6945 29.4095,-81.9012 25.8898,-15.1665 55.6666,-0.615355 85.6052,14.0162 18.2906,8.93741 36.6733,17.9209 44.1284,15.8705 7.2756,-2.00079 18.5351,-18.5398 29.9221,-35.2642 19.2437,-28.2638 38.7378,-56.8961 70.128,-56.8961 31.3902,0 50.8855,28.6335 70.1292,56.8973 11.387,16.7244 22.6477,33.2622 29.9209,35.263 7.45394,2.0504 25.8378,-6.93308 44.1272,-15.8717 29.9386,-14.6315 59.7154,-29.1815 85.6052,-14.015 25.9606,15.2055 27.6886,48.5882 29.4107,81.9001 1.02638,19.8721 2.05276,39.7111 7.11142,44.7685 5.05985,5.06103 24.8965,6.08623 44.7697,7.11378 33.3118,1.72205 66.6945,3.44882 81.9012,29.4095 15.1665,25.8898 0.615355,55.6666 -14.0162,85.6052 -8.93741,18.2906 -17.9209,36.6733 -15.8705,44.1284 2.00079,7.2756 18.5398,18.5351 35.2642,29.9221z"/>
   </g>
  </g>
  <path class="fil2" d="M1024 -0.0011811c565.539,0 1024,458.462 1024,1024 0,565.539 -458.462,1024 -1024,1024 -565.539,0 -1024,-458.462 -1024,-1024 0,-565.539 458.462,-1024 1024,-1024z"/>
  <path class="fil3" d="M1041.43 1277.17l167.642 293.84c2.2063,4.64055 5.98465,8.56418 11.0126,10.885 11.4142,5.2689 24.939,0.288189 30.2079,-11.126l-20.6669 -9.53977 20.628 9.51379 56.563 -122.517 132.279 11.0315c4.75394,0.557481 9.72048,-0.372048 14.165,-2.98229 10.839,-6.36615 14.465,-20.3162 8.09883,-31.1563l-0.0744095 0.0437008 -177.631 -310.845c-6.68386,0.3 -15.6508,0.768898 -21.9319,1.74685 -1.35,8.66812 -1.7315,22.454 -2.03386,28.291 -1.9311,37.3677 -4.53662,79.2213 -40.637,100.367 -35.974,21.0744 -73.5591,3.18898 -107.104,-13.2047 -5.52638,-2.70118 -19.2378,-9.78426 -27.7252,-12.6839 -5.85709,6.68741 -14.0764,19.3854 -17.5158,24.437 -7.813,11.4744 -15.9957,23.3764 -25.2768,33.9z"/>
  <path class="fil3" d="M765.236 1121.44l-178.52 303.731 -0.0744095 -0.0437008c-6.36733,10.8402 -2.74134,24.7902 8.09883,31.1563 4.44449,2.61024 9.41103,3.53977 14.165,2.98229l132.279 -11.0315 56.5619 122.517 20.6291 -9.51379 -20.6669 9.53977c5.26772,11.4142 18.7937,16.3949 30.2067,11.126 5.02914,-2.32087 8.80749,-6.24449 11.0126,-10.885l168.533 -286.726c-9.28229,-10.5248 -17.465,-22.4256 -25.278,-33.9012 -3.43937,-5.05158 -11.6575,-17.7461 -17.5158,-24.4347 -8.48741,2.89961 -22.1965,9.98268 -27.724,12.6839 -33.5445,16.3925 -71.1296,34.278 -107.104,13.2047 -36.1004,-21.1465 -38.7059,-63 -40.637,-100.367 -0.302362,-5.83819 -0.683859,-19.624 -2.03386,-28.291 -6.28111,-0.977954 -15.248,-1.44921 -21.9319,-1.74803z"/>
  <path class="fil4" d="M1024 463.999c31.3902,0 50.8855,28.6335 70.1292,56.8973 11.387,16.7244 22.6477,33.2622 29.9209,35.263 7.45394,2.0504 25.8378,-6.93308 44.1272,-15.8717 29.9386,-14.6315 59.7154,-29.1815 85.6052,-14.015 25.9606,15.2055 27.6886,48.5882 29.4107,81.9001 1.02638,19.8721 2.05276,39.7111 7.11142,44.7685 5.05985,5.06103 24.8965,6.08623 44.7697,7.11378 33.3118,1.72205 66.6945,3.44882 81.9012,29.4095 15.1665,25.8898 0.615355,55.6666 -14.0162,85.6052 -8.93741,18.2906 -17.9209,36.6733 -15.8705,44.1284 2.00079,7.2756 18.5398,18.5351 35.2642,29.9221 28.2638,19.2437 56.8961,38.7378 56.8961,70.128 0,31.3902 -28.6335,50.8855 -56.8973,70.1292 -16.7244,11.387 -33.2622,22.6477 -35.263,29.9209 -2.0504,7.45394 6.93308,25.8378 15.8717,44.1272 14.6315,29.9386 29.1815,59.7154 14.015,85.6052 -15.2055,25.9606 -48.5882,27.6886 -81.9001,29.4107 -19.8721,1.02638 -39.7111,2.05276 -44.7685,7.11142 -5.06103,5.05985 -6.08623,24.8977 -7.11378,44.7697 -1.72205,33.3118 -3.44882,66.6945 -29.4095,81.9012 -25.8898,15.1665 -55.6666,0.615355 -85.6052,-14.015 -18.2906,-8.93859 -36.6733,-17.9221 -44.1284,-15.8717 -7.2756,2.00079 -18.5351,18.5398 -29.9221,35.2642 -19.2437,28.2638 -38.7378,56.8961 -70.128,56.8961 -31.3902,0 -50.8855,-28.6335 -70.1292,-56.8973 -11.387,-16.7244 -22.6477,-33.2622 -29.9209,-35.263 -7.45394,-2.0504 -25.8378,6.93308 -44.1272,15.8717 -29.9386,14.6315 -59.7154,29.1815 -85.6052,14.0162 -25.9606,-15.2067 -27.6886,-48.5894 -29.4107,-81.9012 -1.02638,-19.8721 -2.05276,-39.7111 -7.11142,-44.7685 -5.05985,-5.06103 -24.8965,-6.08623 -44.7697,-7.11378 -33.3118,-1.72205 -66.6945,-3.44882 -81.9012,-29.4095 -15.1665,-25.8898 -0.615355,-55.6666 14.0162,-85.6052 8.93741,-18.2906 17.9209,-36.6733 15.8705,-44.1284 -2.00079,-7.2756 -18.5398,-18.5362 -35.2642,-29.9233 -28.2638,-19.2414 -56.8961,-38.739 -56.8961,-70.1268 0,-31.3902 28.6335,-50.8855 56.8973,-70.1292 16.7244,-11.387 33.2622,-22.6477 35.263,-29.9209 2.0504,-7.45394 -6.93308,-25.8378 -15.8717,-44.1272 -14.6315,-29.9386 -29.1815,-59.7154 -14.015,-85.6052 15.2055,-25.9606 48.5882,-27.6886 81.9001,-29.4107 19.8721,-1.02638 39.7111,-2.05276 44.7685,-7.11142 5.06103,-5.05985 6.08623,-24.8965 7.11378,-44.7697 1.72205,-33.3118 3.44882,-66.6945 29.4095,-81.9012 25.8898,-15.1665 55.6666,-0.615355 85.6052,14.0162 18.2906,8.93741 36.6733,17.9209 44.1284,15.8705 7.2756,-2.00079 18.5351,-18.5398 29.9221,-35.2642 19.2437,-28.2638 38.7378,-56.8961 70.128,-56.8961z"/>
  <path class="fil5" d="M1024 606.781c86.282,0 164.399,34.976 220.945,91.5213 56.5453,56.5465 91.5213,134.663 91.5213,220.945 0,86.282 -34.976,164.399 -91.5213,220.945 -56.5465,56.5453 -134.663,91.5213 -220.945,91.5213 -86.282,0 -164.399,-34.976 -220.945,-91.5213 -56.5453,-56.5465 -91.5213,-134.663 -91.5213,-220.945 0,-86.282 34.976,-164.399 91.5213,-220.945 56.5465,-56.5453 134.663,-91.5213 220.945,-91.5213z"/>
  <path class="fil6" d="M1212.76 730.491c-48.3059,-48.3059 -115.042,-78.1843 -188.758,-78.1843 -73.7162,0 -140.452,29.8784 -188.758,78.1843 -48.3048,48.3048 -78.1831,115.041 -78.1831,188.757 0,73.715 29.8784,140.452 78.1831,188.758 48.3059,48.3048 115.042,78.1831 188.758,78.1831 73.7162,0 140.452,-29.8784 188.758,-78.1831 48.3048,-48.3059 78.1831,-115.043 78.1831,-188.758 0,-73.7162 -29.8784,-140.452 -78.1831,-188.757z"/>
  <path class="fil7" d="M1197.4 847.24c8.8878,-8.8878 8.8878,-23.2996 0,-32.1874 -8.8878,-8.8878 -23.2996,-8.8878 -32.1874,0l-190.368 190.368 -92.054 -92.0528c-8.8878,-8.8878 -23.2996,-8.8878 -32.1874,0 -8.8878,8.8878 -8.8878,23.2996 0,32.1874l108.02 108.019 0.125197 0.129921c8.88898,8.88898 23.302,8.88898 32.191,0l-0.0011811 -0.00236221 206.462 -206.462z"/>
 </g>
</svg>
