<?xml version="1.0" encoding="utf-8"?>
<!-- Generator: Adobe Illustrator 21.0.0, SVG Export Plug-In . SVG Version: 6.00 Build 0)  -->
<svg version="1.1" id="Layer_1" xmlns="http://www.w3.org/2000/svg" xmlns:xlink="http://www.w3.org/1999/xlink" x="0px" y="0px"
	 viewBox="0 0 256 256" style="enable-background:new 0 0 256 256;" xml:space="preserve">
<style type="text/css">
	.st0{fill:#FFCD29;}
	.st1{fill:#55ACD5;}
	.st2{fill:#E9E9EA;}
	.st3{fill:#F9D0B4;}
	.st4{fill:#EA4647;}
	.st5{fill:#6DCC6D;}
	.st6{fill:#231F20;}
</style>
<g id="Layer_60">
	<path class="st0" d="M204.9,43.5c-42.7-39-109.1-38.5-151.3,1c-38.4,36-46.6,93.9-19.5,139c1.2,2,1.3,4.4,0.3,6.5l-19.2,41.2
		c-1.6,3.5-0.1,7.7,3.4,9.4c1.9,0.9,4.1,0.9,6,0l41.2-19.2c2.2-1,4.7-0.8,6.7,0.4c52.9,31.6,121.5,14.4,153.1-38.5
		C252.9,137.8,244.2,79.3,204.9,43.5z"/>
	<path class="st1" d="M89.9,77l-6.3-6.3c-1.5-1.5-4-1.5-5.5,0c0,0,0,0,0,0l-43.2,43.2c-1.5,1.5-1.5,4,0,5.5c0,0,0,0,0,0l6.3,6.3
		c1.5,1.5,4,1.5,5.5,0c0,0,0,0,0,0l43.2-43.2C91.4,81,91.4,78.6,89.9,77C89.9,77,89.9,77,89.9,77z"/>
	<path class="st1" d="M221.3,113.9l-43.2-43.2c-1.5-1.5-4-1.5-5.5,0c0,0,0,0,0,0l-6.3,6.3c-1.5,1.5-1.5,4,0,5.5c0,0,0,0,0,0
		l43.2,43.2c1.5,1.5,4,1.5,5.5,0c0,0,0,0,0,0l6.3-6.3C222.8,117.9,222.8,115.4,221.3,113.9C221.3,113.9,221.3,113.9,221.3,113.9z"/>
	<path class="st2" d="M96.7,89.6l-6.9-6.9l-42.1,42.1l6.9,6.9c0.8,0.8,2.2,0.8,3,0c0,0,0,0,0,0l39.1-39.1
		C97.5,91.8,97.5,90.5,96.7,89.6C96.7,89.6,96.7,89.6,96.7,89.6z"/>
	<path class="st2" d="M166.4,82.7l-6.9,6.9c-0.8,0.8-0.8,2.2,0,3c0,0,0,0,0,0l39.1,39.1c0.8,0.8,2.2,0.8,3,0c0,0,0,0,0,0l6.9-6.9
		L166.4,82.7z"/>
	<path class="st3" d="M161.9,95.1l-6,5.8c-8.6,7.9-15.2,6.9-20.7,8.3c-6.8,1.2-13,4.5-17.8,9.3l-6.5,6.5c-2.9,2.9-2.9,7.5,0,10.4
		c2.7,2.7,6.9,2.9,9.9,0.5l7.2-7.2l37.3,37.1l0,0.2l5.9-5.9c2.1-2.1,3.8-4.5,5.2-7.1c1.9-3.3,3.3-7.7,8.1-12.5l11.5-11.5L161.9,95.1
		z"/>
	<path class="st3" d="M165.3,165.9L165.3,165.9l-0.1-0.1l-37.3-37.1l0,0l-7.2,7.2c-3.1,2.6-7.8,2.1-10.3-1c-2.4-2.9-2.2-7.2,0.5-9.9
		l6.5-6.5c3.1-3.1,6.7-5.5,10.7-7.2c-2.3-1-4.7-1.7-7.1-2.1c-5.5-1.5-12.1-0.4-20.7-8.3l-6-5.8L60.3,129l11.5,11.5
		c4.8,4.8,6.2,9.2,8.1,12.5c1.3,2.6,3.1,5,5.2,7.1l42.7,42.7c2.6,2.6,6.7,2.6,9.3,0c2.6-2.6,2.6-6.7,0-9.3c2.6,2.6,6.7,2.6,9.3,0
		s2.6-6.7,0-9.3c2.6,2.6,6.7,2.6,9.3,0s2.6-6.7,0-9.3l0.2,0.2c2.6,2.6,6.7,2.5,9.3,0C167.7,172.6,167.8,168.5,165.3,165.9
		L165.3,165.9z"/>
	<path class="st1" d="M88.5,249.7c-3-0.6-5.3-2.9-5.9-5.9c0-0.1-0.1-0.1-0.2-0.1c-0.1,0-0.1,0.1-0.1,0.1c-0.6,3-2.9,5.3-5.9,5.9
		c-0.1,0-0.1,0.1-0.1,0.2c0,0.1,0.1,0.1,0.1,0.1c3,0.6,5.3,2.9,5.9,5.9c0,0.1,0.1,0.1,0.2,0.1c0.1,0,0.1-0.1,0.1-0.1
		c0.6-3,2.9-5.3,5.9-5.9c0.1,0,0.1-0.1,0.1-0.2C88.6,249.8,88.5,249.7,88.5,249.7z"/>
	<path class="st4" d="M203,10.9h-1.8V9c0-1.4-1.1-2.5-2.5-2.5s-2.5,1.1-2.5,2.5v1.8h-1.8c-1.4,0-2.5,1.1-2.5,2.5s1.1,2.5,2.5,2.5
		h1.8v1.8c0,1.4,1.1,2.5,2.5,2.5s2.5-1.1,2.5-2.5v-1.8h1.8c1.4,0,2.5-1.1,2.5-2.5S204.4,10.9,203,10.9z"/>
	<path class="st5" d="M66.3,236.2c-1.4,0-2.5,1.1-2.5,2.5s1.1,2.5,2.5,2.5s2.5-1.1,2.5-2.5C68.8,237.3,67.7,236.2,66.3,236.2z"/>
	<path class="st0" d="M174.8,0c-1.4,0-2.5,1.1-2.5,2.5c0,0.7,0.3,1.3,0.7,1.8c1,1,2.6,0.9,3.6-0.1c0.4-0.5,0.7-1.1,0.7-1.7
		C177.3,1.1,176.2,0,174.8,0z"/>
	<path class="st6" d="M243.9,123.5c-0.6-31.2-14.1-60.8-37.3-81.8C163,1.9,95,2.4,51.9,42.7C12.6,79.5,4.3,138.7,32,184.9
		c0.7,1.3,0.8,2.8,0.2,4.2L13,230.3c-2.2,4.8-0.1,10.5,4.7,12.7c1.2,0.6,2.6,0.9,4,0.9c1.4,0,2.8-0.3,4.1-0.9l41.2-19.2
		c1.4-0.6,3-0.5,4.4,0.3c54.1,32.3,124.2,14.7,156.5-39.4C238.8,166.2,244.4,145,243.9,123.5L243.9,123.5z M207,203.3
		c-35.3,35.4-90.2,42.2-133.1,16.5c-2.7-1.7-6.1-1.9-9-0.5l-41.2,19.2c-2.3,1.1-5,0.1-6.1-2.2c-0.6-1.2-0.6-2.6,0-3.8l19.2-41.2
		c1.3-2.8,1.2-6.2-0.4-8.9C5.3,130.5,22.2,63.5,74,32.6C115.2,8,167.7,13.2,203.2,45.4c44.6,40.6,47.9,109.6,7.3,154.2
		C209.4,200.8,208.2,202.1,207,203.3L207,203.3z"/>
	<path class="st6" d="M98.4,87.9L91.5,81c-1-1-2.6-1-3.5,0l-42.1,42.1c-1,1-1,2.6,0,3.5l6.9,6.9c1.8,1.8,4.7,1.8,6.5,0l39.1-39.1
		C100.2,92.6,100.2,89.7,98.4,87.9z M56,129.7l-4.9-4.9l38.6-38.6l4.9,4.9L56,129.7z"/>
	<path class="st6" d="M157.5,173.1l-24.5-24.5c-1-1-2.6-0.9-3.5,0.1c-0.9,1-0.9,2.5,0,3.5l24.5,24.5c1,1,2.5,1,3.5,0.1
		S158.5,174.2,157.5,173.1C157.5,173.2,157.5,173.1,157.5,173.1z"/>
	<path class="st6" d="M148.2,182.4l-24.5-24.5c-1-1-2.5-1-3.5-0.1s-1,2.5-0.1,3.5c0,0,0,0,0.1,0.1l24.5,24.5c1,1,2.5,1,3.5,0.1
		S149.2,183.5,148.2,182.4C148.2,182.5,148.2,182.5,148.2,182.4z"/>
	<path class="st6" d="M138.8,191.8l-24.5-24.5c-1-1-2.5-1-3.5-0.1s-1,2.5-0.1,3.5c0,0,0,0,0.1,0.1l24.5,24.5c1,1,2.6,0.9,3.5-0.1
		C139.8,194.3,139.8,192.7,138.8,191.8L138.8,191.8z"/>
	<path class="st6" d="M91.7,75.3L85.4,69c-2.5-2.5-6.6-2.5-9.1,0l-43.2,43.2c-2.5,2.5-2.5,6.5,0,9.1c0,0,0,0,0,0l6.3,6.3
		c2.5,2.5,6.6,2.5,9.1,0l0,0l43.2-43.2C94.2,81.8,94.2,77.8,91.7,75.3C91.7,75.3,91.7,75.3,91.7,75.3z M88.1,80.8L45,124
		c-0.5,0.5-1.4,0.5-2,0l-6.3-6.3c-0.5-0.5-0.6-1.4,0-2c0,0,0,0,0,0l43.2-43.2c0.5-0.5,1.4-0.5,2,0l6.3,6.3
		C88.7,79.3,88.7,80.2,88.1,80.8C88.1,80.8,88.1,80.8,88.1,80.8L88.1,80.8z"/>
	<path class="st6" d="M210.3,123.1L168.2,81c-1-1-2.6-1-3.5,0l-6.9,6.9c-1.8,1.8-1.8,4.7,0,6.5l39.1,39.1c1.8,1.8,4.7,1.8,6.5,0
		l6.9-6.9C211.3,125.6,211.3,124,210.3,123.1C210.3,123.1,210.3,123.1,210.3,123.1z M200.1,129.7l-38.6-38.6l4.9-4.9l38.6,38.6
		L200.1,129.7z"/>
	<path class="st6" d="M223,112.1L179.9,69c-2.5-2.5-6.6-2.5-9.1,0l-6.3,6.3c-2.5,2.5-2.5,6.5,0,9.1c0,0,0,0,0,0l43.2,43.2l0,0
		c2.5,2.5,6.6,2.5,9.1,0l6.3-6.3C225.5,118.7,225.6,114.6,223,112.1C223.1,112.1,223,112.1,223,112.1L223,112.1z M219.5,117.6
		l-6.3,6.3c-0.5,0.5-1.4,0.5-2,0l0,0L168,80.8c-0.5-0.5-0.6-1.4,0-2c0,0,0,0,0,0l6.3-6.3c0.5-0.5,1.4-0.5,2,0l43.2,43.2
		C220.1,116.2,220.1,117.1,219.5,117.6C219.5,117.6,219.5,117.6,219.5,117.6L219.5,117.6z"/>
	<path class="st6" d="M197.7,127.3l-33.9-33.9c-1-1-2.5-1-3.5,0l-5.9,5.8c-6,5.5-10.7,6.2-15.3,6.9c-1.4,0.2-2.9,0.5-4.3,0.8
		c-7.2,1.3-13.9,4.8-19.1,10l-6.5,6.5c-3.8,3.8-3.8,10.1,0,13.9c3.6,3.6,9.2,3.9,13.2,0.7c0.1-0.1,0.1-0.1,0.2-0.2l5.4-5.5l35.2,35
		c0.7,1.2,2.2,1.6,3.4,0.9c0.2-0.1,0.3-0.2,0.5-0.4l5.9-5.9c2.3-2.3,4.1-4.8,5.6-7.7c0.5-0.8,0.9-1.7,1.4-2.6
		c1.5-3.4,3.7-6.6,6.3-9.3l11.5-11.5C198.6,129.8,198.6,128.2,197.7,127.3z M182.6,138.7c-3,3.1-5.5,6.7-7.2,10.6
		c-0.4,0.9-0.8,1.7-1.2,2.4c0,0,0,0.1-0.1,0.1c-1.2,2.4-2.8,4.6-4.7,6.5l-4.1,4.1l-35.7-35.5c-0.5-0.5-1.1-0.7-1.8-0.7h0
		c-0.7,0-1.3,0.3-1.8,0.7l-7.1,7.1c-2.1,1.6-5.2,1.2-6.8-0.9c-1.5-1.9-1.3-4.7,0.4-6.4l6.5-6.5c4.5-4.5,10.3-7.5,16.5-8.6
		c0.1,0,0.1,0,0.2,0c1.3-0.3,2.6-0.5,3.8-0.7c4.8-0.7,10.8-1.6,18-8.2l4.2-4.1l30.4,30.4L182.6,138.7z"/>
	<path class="st6" d="M167.1,164.2c0-0.1-0.1-0.1-0.1-0.2l-37.3-37.1c-0.5-0.5-1.1-0.7-1.8-0.7h0c-0.7,0-1.3,0.3-1.8,0.7l-7.1,7.1
		c-2.1,1.6-5.2,1.2-6.8-0.9c-1.5-1.9-1.3-4.7,0.4-6.4l6.5-6.5c2.8-2.8,6.2-5.1,9.9-6.7c1.3-0.5,1.9-2,1.3-3.3
		c-0.3-0.6-0.7-1.1-1.3-1.3c-2.4-1-5-1.8-7.6-2.3c-1.4-0.3-2.8-0.6-4.3-0.8c-4.6-0.7-9.3-1.4-15.3-6.9l-6-5.8c-1-1-2.5-0.9-3.5,0
		l-33.9,33.9c-1,1-1,2.6,0,3.5L70,142.3c2.6,2.7,4.8,5.8,6.3,9.3c0.5,0.9,0.9,1.8,1.4,2.6c1.5,2.8,3.3,5.4,5.6,7.7l42.7,42.7
		c3.6,3.5,9.3,3.5,12.9,0c1.7-1.7,2.7-4,2.7-6.4c0-0.1,0-0.2,0-0.2c5,0.1,9.2-3.8,9.3-8.8c0-0.2,0-0.3,0-0.5c0.1,0,0.2,0,0.2,0
		c5,0,9.1-4.1,9.1-9.1v0c5,0.2,9.3-3.6,9.5-8.6C169.8,168.4,168.9,166,167.1,164.2L167.1,164.2z M163.5,173.4
		c-1.6,1.6-4.2,1.6-5.8,0l-0.2-0.2c-1-1-2.6-1-3.5,0c-1,1-1,2.5,0,3.5c1.6,1.6,1.6,4.2,0,5.8c-1.6,1.6-4.2,1.6-5.7,0
		c-1-1-2.5-1-3.5-0.1s-1,2.5-0.1,3.5c0,0,0,0,0.1,0.1c1.6,1.6,1.5,4.2-0.1,5.8c-1.6,1.5-4.1,1.5-5.7,0c-1-1-2.5-1-3.5-0.1
		s-1,2.5-0.1,3.5c0,0,0,0,0.1,0.1c1.6,1.6,1.6,4.2,0,5.8s-4.2,1.6-5.8,0l0,0l-42.7-42.7c-1.9-1.9-3.5-4.1-4.7-6.5c0,0,0-0.1-0.1-0.1
		c-0.4-0.7-0.8-1.5-1.2-2.4c-1.8-3.9-4.2-7.5-7.2-10.6l-9.7-9.7l30.4-30.4l4.3,4.1c7.1,6.5,13.1,7.5,17.9,8.2
		c1.3,0.2,2.6,0.4,3.8,0.7c0.1,0,0.1,0,0.2,0c0.4,0.1,0.8,0.1,1.2,0.2c-2.2,1.4-4.2,3-6.1,4.9l-6.5,6.5c-3.8,3.8-3.8,10.1,0,13.9
		c3.6,3.6,9.2,3.9,13.2,0.7c0.1-0.1,0.1-0.1,0.2-0.2l5.4-5.5l35.2,35c0.2,0.3,0.4,0.5,0.6,0.7C165,169.6,164.9,171.9,163.5,173.4
		L163.5,173.4z"/>
	<path class="st6" d="M161,127.4c-0.7-1.2-2.3-1.5-3.4-0.8c-10.1,6.3-24.7-3.3-24.9-3.4c-1-0.7-2.3-0.5-3.2,0.3l-3.4,3.4
		c-1,1-1,2.6,0,3.5c1,1,2.5,1,3.5,0l2-2c3.2,1.8,10.3,5.3,17.8,5.3c3.8,0.1,7.5-1,10.7-2.9C161.4,130.1,161.7,128.5,161,127.4z"/>
</g>
</svg>
